<svg fill="#000000" width="40px" height="40px" viewBox="0 0 20 20" version="1.1" xmlns="http://www.w3.org/2000/svg" xmlns:bx="https://boxy-svg.com">
  <defs></defs>
  <title>beta-line</title>
  <path d="M 4.676 18.938 C 4.601 18.938 4.53 18.915 4.461 18.872 C 4.251 18.737 4.11 18.428 4.11 18.081 L 4.11 14.65 L 1.864 14.65 C 1.552 14.65 1.298 14.266 1.298 13.793 L 1.298 1.794 C 1.298 1.321 1.552 0.938 1.864 0.938 L 18.74 0.938 C 19.052 0.938 19.298 1.321 19.298 1.794 L 19.298 13.793 C 19.298 14.266 19.052 14.65 18.74 14.65 L 7.724 14.65 L 5.073 18.694 C 4.966 18.849 4.826 18.938 4.676 18.938 Z M 2.424 12.935 L 4.676 12.935 C 4.987 12.935 5.234 13.319 5.234 13.793 L 5.234 16.018 L 7.095 13.187 C 7.198 13.032 7.342 12.943 7.487 12.935 L 18.175 12.935 L 18.175 2.652 L 2.424 2.652 L 2.424 12.935 Z" class="clr-i-outline clr-i-outline-path-5" style="transform-box: fill-box; transform-origin: 50% 50%; fill: #5a985f;" transform="matrix(0.994522, -0.104528, 0.104528, 0.994522, 0, 0)"></path>
  <rect width="20" height="20" fill-opacity="0" style="" x="-0.147" y="-0.037"></rect>
  <path style="fill: transparent; stroke: #5a985f;" d="M 3.4 5.951 L 3.392333333333333 5.8685 C 3.3846666666666665 5.7860000000000005 3.3693333333333335 5.6209999999999996 3.4621666666666666 6.360333333333334 C 3.5549999999999997 7.099666666666667 3.7560000000000002 8.743333333333334 3.869333333333333 9.639833333333334 C 3.982666666666667 10.536333333333333 4.008333333333333 10.685666666666668 4.417833333333333 10.701 C 4.827333333333333 10.716333333333333 5.620666666666666 10.597666666666667 6.0225 10.489333333333333 C 6.424333333333333 10.381 6.434666666666668 10.283 6.403833333333334 9.937833333333334 C 6.373 9.592666666666666 6.300999999999999 9.000333333333332 5.925 8.755666666666666 C 5.5489999999999995 8.511000000000001 4.869 8.613999999999999 4.529 8.6655 L 4.189 8.717" bx:d="M 3.4 5.951 U 3.354 5.456 U 3.957 10.387 U 4.034 10.835 U 6.414 10.479 U 6.445 10.185 U 6.229 8.408 U 4.189 8.717 1@87c1903e"></path>
  <path style="fill: transparent; stroke: #5a985f;" d="M 8.159 8.794 L 8.438833333333333 8.776 C 8.718666666666666 8.758000000000001 9.278333333333334 8.722 9.4935 8.441166666666666 C 9.708666666666666 8.160333333333334 9.579333333333333 7.634666666666667 9.409333333333333 7.323 C 9.239333333333333 7.011333333333333 9.028666666666666 6.913666666666667 8.786166666666665 6.895666666666666 C 8.543666666666667 6.877666666666666 8.269333333333334 6.939333333333334 8.0625 7.032 C 7.855666666666667 7.124666666666667 7.716333333333334 7.248333333333334 7.676666666666666 7.510999999999999 C 7.6370000000000005 7.773666666666666 7.697 8.175333333333333 7.768999999999999 8.651833333333334 C 7.841 9.128333333333332 7.925 9.679666666666668 8.175833333333333 9.957833333333333 C 8.426666666666668 10.235999999999999 8.844333333333333 10.241 9.095333333333334 10.230666666666666 C 9.346333333333334 10.220333333333334 9.430666666666667 10.194666666666668 9.497833333333334 10.179333333333334 C 9.565 10.164 9.615 10.159 9.659333333333333 10.148666666666665 C 9.703666666666665 10.138333333333334 9.742333333333333 10.122666666666666 9.71 10.127833333333333 C 9.677666666666667 10.133000000000001 9.574333333333334 10.159 9.507666666666667 10.182166666666667 C 9.441 10.205333333333334 9.411 10.225666666666667 9.396 10.235833333333334 L 9.381 10.246" bx:d="M 8.159 8.794 U 9.838 8.686 U 9.45 7.109 U 8.818 6.816 U 7.995 7.001 U 7.577 7.372 U 7.757 8.577 U 8.009 10.231 U 9.262 10.246 U 9.515 10.169 U 9.665 10.154 U 9.781 10.107 U 9.471 10.185 U 9.381 10.246 1@2ffe2a36"></path>
  <path style="fill: transparent; stroke: #5a985f; paint-order: fill;" d="M 10.974 4.821 L 10.961500000000001 4.718333333333333 C 10.949 4.615666666666667 10.924 4.410333333333333 11.037333333333331 5.260666666666666 C 11.150666666666666 6.111 11.402333333333333 8.017000000000001 11.548833333333334 8.975 C 11.695333333333332 9.933 11.736666666666666 9.943 11.986666666666666 9.9225 C 12.236666666666666 9.902 12.695333333333332 9.851 12.819 9.838000000000001 C 12.942666666666668 9.825000000000001 12.731333333333334 9.85 12.625666666666666 9.862499999999999 L 12.52 9.875" bx:d="M 10.974 4.821 U 10.899 4.205 U 11.654 9.923 U 11.778 9.953 U 13.154 9.8 U 12.52 9.875 1@5374b6d6"></path>
  <path style="fill: transparent; stroke: #5a985f;" d="M 10.524 5.98 L 10.4855 5.982666666666667 C 10.447 5.985333333333334 10.37 5.990666666666667 10.295499999999999 5.995666666666668 C 10.220999999999998 6.0006666666666675 10.149 6.005333333333333 10.123166666666666 6.008 C 10.097333333333333 6.010666666666666 10.117666666666667 6.011333333333333 10.4705 5.978166666666667 C 10.823333333333332 5.945 11.508666666666668 5.878 11.874333333333334 5.841833333333334 C 12.24 5.805666666666667 12.286000000000001 5.800333333333334 12.242166666666668 5.805499999999999 C 12.198333333333332 5.810666666666666 12.064666666666668 5.826333333333333 11.997833333333332 5.834166666666666 L 11.931 5.842" bx:d="M 10.524 5.98 U 10.293 5.996 U 10.077 6.01 U 10.138 6.012 U 12.194 5.811 U 12.332 5.795 U 11.931 5.842 1@4767131c"></path>
  <path style="fill: transparent; stroke: #5a985f" d="M 14.741833333333334 6.282666666666667 C 14.548666666666668 6.337000000000001 14.291333333333334 6.399000000000001 14.113666666666667 6.5535 C 13.936 6.708000000000001 13.838000000000001 6.955000000000001 13.814666666666668 7.2459999999999996 C 13.791333333333334 7.537 13.842666666666666 7.872 13.896833333333333 8.178666666666667 C 13.951 8.485333333333335 14.008000000000001 8.763666666666667 14.082833333333333 8.987833333333333 C 14.157666666666666 9.212 14.250333333333332 9.382 14.422833333333331 9.4695 C 14.595333333333334 9.557 14.847666666666667 9.562 15.076833333333333 9.556833333333334 C 15.306 9.551666666666668 15.512 9.536333333333333 15.682 9.472 C 15.851999999999999 9.407666666666666 15.985999999999999 9.294333333333332 16.0375 9.160333333333332 C 16.089000000000002 9.026333333333334 16.058000000000003 8.871666666666668 15.996166666666667 8.521333333333333 C 15.934333333333335 8.171000000000001 15.841666666666669 7.625 15.777333333333333 7.2205 C 15.713000000000001 6.816 15.677 6.553 15.6255 6.429333333333332 C 15.574 6.305666666666667 15.507 6.321333333333333 15.424666666666667 6.2878333333333325 C 15.342333333333334 6.254333333333332 15.244666666666667 6.171666666666667 14.958666666666668 6.2335 C 14.672666666666666 6.295333333333335 14.198333333333332 6.501666666666668 14.206000000000001 6.509333333333333 C 14.213666666666667 6.517 14.703333333333333 6.3260000000000005 14.883666666666665 6.253833333333333 C 15.064 6.1816666666666675 14.935 6.228333333333334 14.741833333333334 6.282666666666667" bx:d="M 14.806 6.275 U 14.034 6.461 U 13.74 7.202 U 13.894 8.207 U 14.065 9.042 U 14.343 9.552 U 15.1 9.567 U 15.718 9.521 U 16.12 9.181 U 16.027 8.717 U 15.749 7.079 U 15.641 6.29 U 15.44 6.337 U 15.147 6.089 U 13.724 6.708 U 15.193 6.135 Z 1@d51387ab"></path>
  <path style="fill: rgb(216, 216, 216); stroke: #5a985f; transform-box: fill-box; transform-origin: 50% 50%;" d="M 16.546 9.442 L 16.47683333333333 9.430333333333333 C 16.407666666666668 9.418666666666667 16.269333333333332 9.395333333333333 16.3045 9.406166666666666 C 16.33966666666667 9.417 16.548333333333336 9.462 16.568333333333335 9.462666666666665 C 16.588333333333335 9.463333333333333 16.419666666666668 9.419666666666666 16.335333333333335 9.397833333333333 L 16.251 9.376" transform="matrix(-1, 0, 0, -1, 0.000001, 0)" bx:d="M 16.546 9.442 U 16.131 9.372 U 16.757 9.507 U 16.251 9.376 1@faa89785"></path>
</svg>