<svg fill="#426644" width="24px" height="24px" viewBox="0 0 24 24" xmlns="http://www.w3.org/2000/svg">
  <path d="M 23.32 9.505 L 23.309 9.481 C 21.357 0.727 10.662 -2.627 4.059 3.443 C 1.96 5.37 0.64 8.001 0.352 10.833 C -0.558 19.761 8.531 26.327 16.714 22.651 C 21.74 20.397 24.5 14.92 23.325 9.533 L 23.32 9.505 Z M 11.944 2.463 C 16.204 2.471 19.947 5.306 21.109 9.41 C 20.033 10.422 18.622 11.008 17.143 11.061 C 16.428 7.053 11.65 5.324 8.539 7.946 C 8.172 8.255 7.85 8.617 7.576 9.011 C 6.031 8.645 4.414 8.662 2.878 9.067 C 4.152 5.133 7.809 2.471 11.944 2.463 Z M 9.078 10.659 C 10.102 8.443 13.141 8.171 14.545 10.168 C 14.921 10.704 15.122 11.343 15.12 12.003 C 15.12 12.024 15.113 12.042 15.113 12.065 L 15.113 12.087 C 15.058 14.529 12.385 16.001 10.296 14.733 C 8.905 13.887 8.381 12.129 9.078 10.659 Z M 20.756 15.614 L 20.305 14.707 C 19.94 13.974 18.924 13.917 18.474 14.596 C 18.263 14.914 18.24 15.316 18.409 15.655 L 19.468 17.772 C 19.475 17.785 19.484 17.791 19.49 17.802 C 18.132 19.574 16.192 20.812 14.016 21.3 C 13.891 20.748 13.628 20.738 12.693 19.726 C 12.104 19.158 11.128 19.44 10.928 20.229 C 10.839 20.583 10.939 20.961 11.194 21.22 L 11.482 21.508 C 7.884 21.334 4.695 19.147 3.231 15.852 L 4.218 14.865 C 4.784 14.28 4.507 13.297 3.714 13.103 C 3.358 13.011 2.981 13.11 2.72 13.369 L 2.547 13.541 C 2.426 12.882 2.387 12.205 2.437 11.538 C 3.761 10.842 5.289 10.655 6.745 11.004 C 6.678 11.333 6.646 11.667 6.646 12.003 C 6.648 14.929 9.02 17.295 11.944 17.299 C 12.885 17.285 13.808 17.034 14.631 16.564 L 15.234 17.772 C 15.595 18.501 16.615 18.566 17.066 17.884 C 17.272 17.566 17.296 17.164 17.127 16.827 L 16.245 15.065 L 16.256 15.055 C 16.658 14.493 16.945 13.862 17.099 13.188 C 18.654 13.153 20.166 12.68 21.467 11.823 C 21.467 11.883 21.473 11.939 21.473 12.003 C 21.473 13.242 21.232 14.471 20.756 15.614 Z M 8.452 17.609 C 9.043 18.173 8.798 19.165 8.009 19.387 C 7.637 19.5 7.232 19.387 6.959 19.107 L 5.894 18.046 C 5.333 17.461 5.615 16.479 6.403 16.286 C 6.759 16.194 7.131 16.297 7.4 16.549 L 8.452 17.609 Z" style=""/>
</svg>