<?xml version="1.0" encoding="utf-8"?>
<!DOCTYPE svg PUBLIC "-//W3C//DTD SVG 1.1//EN" "http://www.w3.org/Graphics/SVG/1.1/DTD/svg11.dtd">
<svg version="1.1" id="Layer_1" xmlns="http://www.w3.org/2000/svg" xmlns:xlink="http://www.w3.org/1999/xlink" x="0px" y="0px"
width="462px" height="462px" viewBox="0 0 462 462" enable-background="new 0 0 462 462" xml:space="preserve">
<rect x="0" y="0" width="462" height="462" fill="rgb(255,234,195)" /><g transform="translate(28,28)"><g transform="translate(154,0) scale(0.14,0.14)"><g transform="" style="fill: rgb(26, 97, 21);">
<rect width="100" height="100"/>
</g></g><g transform="translate(168,0) scale(0.14,0.14)"><g transform="" style="fill: rgb(26, 97, 21);">
<rect width="100" height="100"/>
</g></g><g transform="translate(196,0) scale(0.14,0.14)"><g transform="" style="fill: rgb(26, 97, 21);">
<rect width="100" height="100"/>
</g></g><g transform="translate(210,0) scale(0.14,0.14)"><g transform="" style="fill: rgb(26, 97, 21);">
<rect width="100" height="100"/>
</g></g><g transform="translate(224,0) scale(0.14,0.14)"><g transform="" style="fill: rgb(26, 97, 21);">
<rect width="100" height="100"/>
</g></g><g transform="translate(238,0) scale(0.14,0.14)"><g transform="" style="fill: rgb(26, 97, 21);">
<rect width="100" height="100"/>
</g></g><g transform="translate(252,0) scale(0.14,0.14)"><g transform="" style="fill: rgb(26, 97, 21);">
<rect width="100" height="100"/>
</g></g><g transform="translate(280,0) scale(0.14,0.14)"><g transform="" style="fill: rgb(26, 97, 21);">
<rect width="100" height="100"/>
</g></g><g transform="translate(126,14) scale(0.14,0.14)"><g transform="" style="fill: rgb(26, 97, 21);">
<rect width="100" height="100"/>
</g></g><g transform="translate(168,14) scale(0.14,0.14)"><g transform="" style="fill: rgb(26, 97, 21);">
<rect width="100" height="100"/>
</g></g><g transform="translate(238,14) scale(0.14,0.14)"><g transform="" style="fill: rgb(26, 97, 21);">
<rect width="100" height="100"/>
</g></g><g transform="translate(252,14) scale(0.14,0.14)"><g transform="" style="fill: rgb(26, 97, 21);">
<rect width="100" height="100"/>
</g></g><g transform="translate(266,14) scale(0.14,0.14)"><g transform="" style="fill: rgb(26, 97, 21);">
<rect width="100" height="100"/>
</g></g><g transform="translate(280,14) scale(0.14,0.14)"><g transform="" style="fill: rgb(26, 97, 21);">
<rect width="100" height="100"/>
</g></g><g transform="translate(126,28) scale(0.14,0.14)"><g transform="" style="fill: rgb(26, 97, 21);">
<rect width="100" height="100"/>
</g></g><g transform="translate(182,28) scale(0.14,0.14)"><g transform="" style="fill: rgb(26, 97, 21);">
<rect width="100" height="100"/>
</g></g><g transform="translate(210,28) scale(0.14,0.14)"><g transform="" style="fill: rgb(26, 97, 21);">
<rect width="100" height="100"/>
</g></g><g transform="translate(224,28) scale(0.14,0.14)"><g transform="" style="fill: rgb(26, 97, 21);">
<rect width="100" height="100"/>
</g></g><g transform="translate(252,28) scale(0.14,0.14)"><g transform="" style="fill: rgb(26, 97, 21);">
<rect width="100" height="100"/>
</g></g><g transform="translate(280,28) scale(0.14,0.14)"><g transform="" style="fill: rgb(26, 97, 21);">
<rect width="100" height="100"/>
</g></g><g transform="translate(126,42) scale(0.14,0.14)"><g transform="" style="fill: rgb(26, 97, 21);">
<rect width="100" height="100"/>
</g></g><g transform="translate(182,42) scale(0.14,0.14)"><g transform="" style="fill: rgb(26, 97, 21);">
<rect width="100" height="100"/>
</g></g><g transform="translate(196,42) scale(0.14,0.14)"><g transform="" style="fill: rgb(26, 97, 21);">
<rect width="100" height="100"/>
</g></g><g transform="translate(210,42) scale(0.14,0.14)"><g transform="" style="fill: rgb(26, 97, 21);">
<rect width="100" height="100"/>
</g></g><g transform="translate(238,42) scale(0.14,0.14)"><g transform="" style="fill: rgb(26, 97, 21);">
<rect width="100" height="100"/>
</g></g><g transform="translate(266,42) scale(0.14,0.14)"><g transform="" style="fill: rgb(26, 97, 21);">
<rect width="100" height="100"/>
</g></g><g transform="translate(112,56) scale(0.14,0.14)"><g transform="" style="fill: rgb(26, 97, 21);">
<rect width="100" height="100"/>
</g></g><g transform="translate(126,56) scale(0.14,0.14)"><g transform="" style="fill: rgb(26, 97, 21);">
<rect width="100" height="100"/>
</g></g><g transform="translate(140,56) scale(0.14,0.14)"><g transform="" style="fill: rgb(26, 97, 21);">
<rect width="100" height="100"/>
</g></g><g transform="translate(210,56) scale(0.14,0.14)"><g transform="" style="fill: rgb(26, 97, 21);">
<rect width="100" height="100"/>
</g></g><g transform="translate(224,56) scale(0.14,0.14)"><g transform="" style="fill: rgb(26, 97, 21);">
<rect width="100" height="100"/>
</g></g><g transform="translate(238,56) scale(0.14,0.14)"><g transform="" style="fill: rgb(26, 97, 21);">
<rect width="100" height="100"/>
</g></g><g transform="translate(266,56) scale(0.14,0.14)"><g transform="" style="fill: rgb(26, 97, 21);">
<rect width="100" height="100"/>
</g></g><g transform="translate(140,70) scale(0.14,0.14)"><g transform="" style="fill: rgb(26, 97, 21);">
<rect width="100" height="100"/>
</g></g><g transform="translate(182,70) scale(0.14,0.14)"><g transform="" style="fill: rgb(26, 97, 21);">
<rect width="100" height="100"/>
</g></g><g transform="translate(210,70) scale(0.14,0.14)"><g transform="" style="fill: rgb(26, 97, 21);">
<rect width="100" height="100"/>
</g></g><g transform="translate(266,70) scale(0.14,0.14)"><g transform="" style="fill: rgb(26, 97, 21);">
<rect width="100" height="100"/>
</g></g><g transform="translate(112,84) scale(0.14,0.14)"><g transform="" style="fill: rgb(26, 97, 21);">
<rect width="100" height="100"/>
</g></g><g transform="translate(140,84) scale(0.14,0.14)"><g transform="" style="fill: rgb(26, 97, 21);">
<rect width="100" height="100"/>
</g></g><g transform="translate(168,84) scale(0.14,0.14)"><g transform="" style="fill: rgb(26, 97, 21);">
<rect width="100" height="100"/>
</g></g><g transform="translate(196,84) scale(0.14,0.14)"><g transform="" style="fill: rgb(26, 97, 21);">
<rect width="100" height="100"/>
</g></g><g transform="translate(224,84) scale(0.14,0.14)"><g transform="" style="fill: rgb(26, 97, 21);">
<rect width="100" height="100"/>
</g></g><g transform="translate(252,84) scale(0.14,0.14)"><g transform="" style="fill: rgb(26, 97, 21);">
<rect width="100" height="100"/>
</g></g><g transform="translate(280,84) scale(0.14,0.14)"><g transform="" style="fill: rgb(26, 97, 21);">
<rect width="100" height="100"/>
</g></g><g transform="translate(112,98) scale(0.14,0.14)"><g transform="" style="fill: rgb(26, 97, 21);">
<rect width="100" height="100"/>
</g></g><g transform="translate(126,98) scale(0.14,0.14)"><g transform="" style="fill: rgb(26, 97, 21);">
<rect width="100" height="100"/>
</g></g><g transform="translate(140,98) scale(0.14,0.14)"><g transform="" style="fill: rgb(26, 97, 21);">
<rect width="100" height="100"/>
</g></g><g transform="translate(154,98) scale(0.14,0.14)"><g transform="" style="fill: rgb(26, 97, 21);">
<rect width="100" height="100"/>
</g></g><g transform="translate(238,98) scale(0.14,0.14)"><g transform="" style="fill: rgb(26, 97, 21);">
<rect width="100" height="100"/>
</g></g><g transform="translate(252,98) scale(0.14,0.14)"><g transform="" style="fill: rgb(26, 97, 21);">
<rect width="100" height="100"/>
</g></g><g transform="translate(266,98) scale(0.14,0.14)"><g transform="" style="fill: rgb(26, 97, 21);">
<rect width="100" height="100"/>
</g></g><g transform="translate(28,112) scale(0.14,0.14)"><g transform="" style="fill: rgb(26, 97, 21);">
<rect width="100" height="100"/>
</g></g><g transform="translate(42,112) scale(0.14,0.14)"><g transform="" style="fill: rgb(26, 97, 21);">
<rect width="100" height="100"/>
</g></g><g transform="translate(84,112) scale(0.14,0.14)"><g transform="" style="fill: rgb(26, 97, 21);">
<rect width="100" height="100"/>
</g></g><g transform="translate(98,112) scale(0.14,0.14)"><g transform="" style="fill: rgb(26, 97, 21);">
<rect width="100" height="100"/>
</g></g><g transform="translate(112,112) scale(0.14,0.14)"><g transform="" style="fill: rgb(26, 97, 21);">
<rect width="100" height="100"/>
</g></g><g transform="translate(182,112) scale(0.14,0.14)"><g transform="" style="fill: rgb(26, 97, 21);">
<rect width="100" height="100"/>
</g></g><g transform="translate(224,112) scale(0.14,0.14)"><g transform="" style="fill: rgb(26, 97, 21);">
<rect width="100" height="100"/>
</g></g><g transform="translate(294,112) scale(0.14,0.14)"><g transform="" style="fill: rgb(26, 97, 21);">
<rect width="100" height="100"/>
</g></g><g transform="translate(308,112) scale(0.14,0.14)"><g transform="" style="fill: rgb(26, 97, 21);">
<rect width="100" height="100"/>
</g></g><g transform="translate(336,112) scale(0.14,0.14)"><g transform="" style="fill: rgb(26, 97, 21);">
<rect width="100" height="100"/>
</g></g><g transform="translate(0,126) scale(0.14,0.14)"><g transform="" style="fill: rgb(26, 97, 21);">
<rect width="100" height="100"/>
</g></g><g transform="translate(14,126) scale(0.14,0.14)"><g transform="" style="fill: rgb(26, 97, 21);">
<rect width="100" height="100"/>
</g></g><g transform="translate(28,126) scale(0.14,0.14)"><g transform="" style="fill: rgb(26, 97, 21);">
<rect width="100" height="100"/>
</g></g><g transform="translate(42,126) scale(0.14,0.14)"><g transform="" style="fill: rgb(26, 97, 21);">
<rect width="100" height="100"/>
</g></g><g transform="translate(70,126) scale(0.14,0.14)"><g transform="" style="fill: rgb(26, 97, 21);">
<rect width="100" height="100"/>
</g></g><g transform="translate(126,126) scale(0.14,0.14)"><g transform="" style="fill: rgb(26, 97, 21);">
<rect width="100" height="100"/>
</g></g><g transform="translate(140,126) scale(0.14,0.14)"><g transform="" style="fill: rgb(26, 97, 21);">
<rect width="100" height="100"/>
</g></g><g transform="translate(154,126) scale(0.14,0.14)"><g transform="" style="fill: rgb(26, 97, 21);">
<rect width="100" height="100"/>
</g></g><g transform="translate(168,126) scale(0.14,0.14)"><g transform="" style="fill: rgb(26, 97, 21);">
<rect width="100" height="100"/>
</g></g><g transform="translate(210,126) scale(0.14,0.14)"><g transform="" style="fill: rgb(26, 97, 21);">
<rect width="100" height="100"/>
</g></g><g transform="translate(224,126) scale(0.14,0.14)"><g transform="" style="fill: rgb(26, 97, 21);">
<rect width="100" height="100"/>
</g></g><g transform="translate(238,126) scale(0.14,0.14)"><g transform="" style="fill: rgb(26, 97, 21);">
<rect width="100" height="100"/>
</g></g><g transform="translate(308,126) scale(0.14,0.14)"><g transform="" style="fill: rgb(26, 97, 21);">
<rect width="100" height="100"/>
</g></g><g transform="translate(322,126) scale(0.14,0.14)"><g transform="" style="fill: rgb(26, 97, 21);">
<rect width="100" height="100"/>
</g></g><g transform="translate(336,126) scale(0.14,0.14)"><g transform="" style="fill: rgb(26, 97, 21);">
<rect width="100" height="100"/>
</g></g><g transform="translate(392,126) scale(0.14,0.14)"><g transform="" style="fill: rgb(26, 97, 21);">
<rect width="100" height="100"/>
</g></g><g transform="translate(0,140) scale(0.14,0.14)"><g transform="" style="fill: rgb(26, 97, 21);">
<rect width="100" height="100"/>
</g></g><g transform="translate(14,140) scale(0.14,0.14)"><g transform="" style="fill: rgb(26, 97, 21);">
<rect width="100" height="100"/>
</g></g><g transform="translate(42,140) scale(0.14,0.14)"><g transform="" style="fill: rgb(26, 97, 21);">
<rect width="100" height="100"/>
</g></g><g transform="translate(56,140) scale(0.14,0.14)"><g transform="" style="fill: rgb(26, 97, 21);">
<rect width="100" height="100"/>
</g></g><g transform="translate(84,140) scale(0.14,0.14)"><g transform="" style="fill: rgb(26, 97, 21);">
<rect width="100" height="100"/>
</g></g><g transform="translate(112,140) scale(0.14,0.14)"><g transform="" style="fill: rgb(26, 97, 21);">
<rect width="100" height="100"/>
</g></g><g transform="translate(280,140) scale(0.14,0.14)"><g transform="" style="fill: rgb(26, 97, 21);">
<rect width="100" height="100"/>
</g></g><g transform="translate(308,140) scale(0.14,0.14)"><g transform="" style="fill: rgb(26, 97, 21);">
<rect width="100" height="100"/>
</g></g><g transform="translate(322,140) scale(0.14,0.14)"><g transform="" style="fill: rgb(26, 97, 21);">
<rect width="100" height="100"/>
</g></g><g transform="translate(378,140) scale(0.14,0.14)"><g transform="" style="fill: rgb(26, 97, 21);">
<rect width="100" height="100"/>
</g></g><g transform="translate(14,154) scale(0.14,0.14)"><g transform="" style="fill: rgb(26, 97, 21);">
<rect width="100" height="100"/>
</g></g><g transform="translate(28,154) scale(0.14,0.14)"><g transform="" style="fill: rgb(26, 97, 21);">
<rect width="100" height="100"/>
</g></g><g transform="translate(56,154) scale(0.14,0.14)"><g transform="" style="fill: rgb(26, 97, 21);">
<rect width="100" height="100"/>
</g></g><g transform="translate(98,154) scale(0.14,0.14)"><g transform="" style="fill: rgb(26, 97, 21);">
<rect width="100" height="100"/>
</g></g><g transform="translate(112,154) scale(0.14,0.14)"><g transform="" style="fill: rgb(26, 97, 21);">
<rect width="100" height="100"/>
</g></g><g transform="translate(266,154) scale(0.14,0.14)"><g transform="" style="fill: rgb(26, 97, 21);">
<rect width="100" height="100"/>
</g></g><g transform="translate(280,154) scale(0.14,0.14)"><g transform="" style="fill: rgb(26, 97, 21);">
<rect width="100" height="100"/>
</g></g><g transform="translate(322,154) scale(0.14,0.14)"><g transform="" style="fill: rgb(26, 97, 21);">
<rect width="100" height="100"/>
</g></g><g transform="translate(392,154) scale(0.14,0.14)"><g transform="" style="fill: rgb(26, 97, 21);">
<rect width="100" height="100"/>
</g></g><g transform="translate(0,168) scale(0.14,0.14)"><g transform="" style="fill: rgb(26, 97, 21);">
<rect width="100" height="100"/>
</g></g><g transform="translate(28,168) scale(0.14,0.14)"><g transform="" style="fill: rgb(26, 97, 21);">
<rect width="100" height="100"/>
</g></g><g transform="translate(70,168) scale(0.14,0.14)"><g transform="" style="fill: rgb(26, 97, 21);">
<rect width="100" height="100"/>
</g></g><g transform="translate(84,168) scale(0.14,0.14)"><g transform="" style="fill: rgb(26, 97, 21);">
<rect width="100" height="100"/>
</g></g><g transform="translate(112,168) scale(0.14,0.14)"><g transform="" style="fill: rgb(26, 97, 21);">
<rect width="100" height="100"/>
</g></g><g transform="translate(126,168) scale(0.14,0.14)"><g transform="" style="fill: rgb(26, 97, 21);">
<rect width="100" height="100"/>
</g></g><g transform="translate(294,168) scale(0.14,0.14)"><g transform="" style="fill: rgb(26, 97, 21);">
<rect width="100" height="100"/>
</g></g><g transform="translate(322,168) scale(0.14,0.14)"><g transform="" style="fill: rgb(26, 97, 21);">
<rect width="100" height="100"/>
</g></g><g transform="translate(364,168) scale(0.14,0.14)"><g transform="" style="fill: rgb(26, 97, 21);">
<rect width="100" height="100"/>
</g></g><g transform="translate(378,168) scale(0.14,0.14)"><g transform="" style="fill: rgb(26, 97, 21);">
<rect width="100" height="100"/>
</g></g><g transform="translate(392,168) scale(0.14,0.14)"><g transform="" style="fill: rgb(26, 97, 21);">
<rect width="100" height="100"/>
</g></g><g transform="translate(0,182) scale(0.14,0.14)"><g transform="" style="fill: rgb(26, 97, 21);">
<rect width="100" height="100"/>
</g></g><g transform="translate(56,182) scale(0.14,0.14)"><g transform="" style="fill: rgb(26, 97, 21);">
<rect width="100" height="100"/>
</g></g><g transform="translate(70,182) scale(0.14,0.14)"><g transform="" style="fill: rgb(26, 97, 21);">
<rect width="100" height="100"/>
</g></g><g transform="translate(126,182) scale(0.14,0.14)"><g transform="" style="fill: rgb(26, 97, 21);">
<rect width="100" height="100"/>
</g></g><g transform="translate(266,182) scale(0.14,0.14)"><g transform="" style="fill: rgb(26, 97, 21);">
<rect width="100" height="100"/>
</g></g><g transform="translate(280,182) scale(0.14,0.14)"><g transform="" style="fill: rgb(26, 97, 21);">
<rect width="100" height="100"/>
</g></g><g transform="translate(308,182) scale(0.14,0.14)"><g transform="" style="fill: rgb(26, 97, 21);">
<rect width="100" height="100"/>
</g></g><g transform="translate(322,182) scale(0.14,0.14)"><g transform="" style="fill: rgb(26, 97, 21);">
<rect width="100" height="100"/>
</g></g><g transform="translate(350,182) scale(0.14,0.14)"><g transform="" style="fill: rgb(26, 97, 21);">
<rect width="100" height="100"/>
</g></g><g transform="translate(364,182) scale(0.14,0.14)"><g transform="" style="fill: rgb(26, 97, 21);">
<rect width="100" height="100"/>
</g></g><g transform="translate(0,196) scale(0.14,0.14)"><g transform="" style="fill: rgb(26, 97, 21);">
<rect width="100" height="100"/>
</g></g><g transform="translate(14,196) scale(0.14,0.14)"><g transform="" style="fill: rgb(26, 97, 21);">
<rect width="100" height="100"/>
</g></g><g transform="translate(84,196) scale(0.14,0.14)"><g transform="" style="fill: rgb(26, 97, 21);">
<rect width="100" height="100"/>
</g></g><g transform="translate(126,196) scale(0.14,0.14)"><g transform="" style="fill: rgb(26, 97, 21);">
<rect width="100" height="100"/>
</g></g><g transform="translate(266,196) scale(0.14,0.14)"><g transform="" style="fill: rgb(26, 97, 21);">
<rect width="100" height="100"/>
</g></g><g transform="translate(308,196) scale(0.14,0.14)"><g transform="" style="fill: rgb(26, 97, 21);">
<rect width="100" height="100"/>
</g></g><g transform="translate(322,196) scale(0.14,0.14)"><g transform="" style="fill: rgb(26, 97, 21);">
<rect width="100" height="100"/>
</g></g><g transform="translate(336,196) scale(0.14,0.14)"><g transform="" style="fill: rgb(26, 97, 21);">
<rect width="100" height="100"/>
</g></g><g transform="translate(350,196) scale(0.14,0.14)"><g transform="" style="fill: rgb(26, 97, 21);">
<rect width="100" height="100"/>
</g></g><g transform="translate(378,196) scale(0.14,0.14)"><g transform="" style="fill: rgb(26, 97, 21);">
<rect width="100" height="100"/>
</g></g><g transform="translate(392,196) scale(0.14,0.14)"><g transform="" style="fill: rgb(26, 97, 21);">
<rect width="100" height="100"/>
</g></g><g transform="translate(0,210) scale(0.14,0.14)"><g transform="" style="fill: rgb(26, 97, 21);">
<rect width="100" height="100"/>
</g></g><g transform="translate(98,210) scale(0.14,0.14)"><g transform="" style="fill: rgb(26, 97, 21);">
<rect width="100" height="100"/>
</g></g><g transform="translate(280,210) scale(0.14,0.14)"><g transform="" style="fill: rgb(26, 97, 21);">
<rect width="100" height="100"/>
</g></g><g transform="translate(308,210) scale(0.14,0.14)"><g transform="" style="fill: rgb(26, 97, 21);">
<rect width="100" height="100"/>
</g></g><g transform="translate(336,210) scale(0.14,0.14)"><g transform="" style="fill: rgb(26, 97, 21);">
<rect width="100" height="100"/>
</g></g><g transform="translate(350,210) scale(0.14,0.14)"><g transform="" style="fill: rgb(26, 97, 21);">
<rect width="100" height="100"/>
</g></g><g transform="translate(392,210) scale(0.14,0.14)"><g transform="" style="fill: rgb(26, 97, 21);">
<rect width="100" height="100"/>
</g></g><g transform="translate(42,224) scale(0.14,0.14)"><g transform="" style="fill: rgb(26, 97, 21);">
<rect width="100" height="100"/>
</g></g><g transform="translate(84,224) scale(0.14,0.14)"><g transform="" style="fill: rgb(26, 97, 21);">
<rect width="100" height="100"/>
</g></g><g transform="translate(98,224) scale(0.14,0.14)"><g transform="" style="fill: rgb(26, 97, 21);">
<rect width="100" height="100"/>
</g></g><g transform="translate(112,224) scale(0.14,0.14)"><g transform="" style="fill: rgb(26, 97, 21);">
<rect width="100" height="100"/>
</g></g><g transform="translate(294,224) scale(0.14,0.14)"><g transform="" style="fill: rgb(26, 97, 21);">
<rect width="100" height="100"/>
</g></g><g transform="translate(336,224) scale(0.14,0.14)"><g transform="" style="fill: rgb(26, 97, 21);">
<rect width="100" height="100"/>
</g></g><g transform="translate(350,224) scale(0.14,0.14)"><g transform="" style="fill: rgb(26, 97, 21);">
<rect width="100" height="100"/>
</g></g><g transform="translate(378,224) scale(0.14,0.14)"><g transform="" style="fill: rgb(26, 97, 21);">
<rect width="100" height="100"/>
</g></g><g transform="translate(392,224) scale(0.14,0.14)"><g transform="" style="fill: rgb(26, 97, 21);">
<rect width="100" height="100"/>
</g></g><g transform="translate(42,238) scale(0.14,0.14)"><g transform="" style="fill: rgb(26, 97, 21);">
<rect width="100" height="100"/>
</g></g><g transform="translate(70,238) scale(0.14,0.14)"><g transform="" style="fill: rgb(26, 97, 21);">
<rect width="100" height="100"/>
</g></g><g transform="translate(98,238) scale(0.14,0.14)"><g transform="" style="fill: rgb(26, 97, 21);">
<rect width="100" height="100"/>
</g></g><g transform="translate(280,238) scale(0.14,0.14)"><g transform="" style="fill: rgb(26, 97, 21);">
<rect width="100" height="100"/>
</g></g><g transform="translate(308,238) scale(0.14,0.14)"><g transform="" style="fill: rgb(26, 97, 21);">
<rect width="100" height="100"/>
</g></g><g transform="translate(322,238) scale(0.14,0.14)"><g transform="" style="fill: rgb(26, 97, 21);">
<rect width="100" height="100"/>
</g></g><g transform="translate(364,238) scale(0.14,0.14)"><g transform="" style="fill: rgb(26, 97, 21);">
<rect width="100" height="100"/>
</g></g><g transform="translate(0,252) scale(0.14,0.14)"><g transform="" style="fill: rgb(26, 97, 21);">
<rect width="100" height="100"/>
</g></g><g transform="translate(28,252) scale(0.14,0.14)"><g transform="" style="fill: rgb(26, 97, 21);">
<rect width="100" height="100"/>
</g></g><g transform="translate(84,252) scale(0.14,0.14)"><g transform="" style="fill: rgb(26, 97, 21);">
<rect width="100" height="100"/>
</g></g><g transform="translate(280,252) scale(0.14,0.14)"><g transform="" style="fill: rgb(26, 97, 21);">
<rect width="100" height="100"/>
</g></g><g transform="translate(308,252) scale(0.14,0.14)"><g transform="" style="fill: rgb(26, 97, 21);">
<rect width="100" height="100"/>
</g></g><g transform="translate(322,252) scale(0.14,0.14)"><g transform="" style="fill: rgb(26, 97, 21);">
<rect width="100" height="100"/>
</g></g><g transform="translate(336,252) scale(0.14,0.14)"><g transform="" style="fill: rgb(26, 97, 21);">
<rect width="100" height="100"/>
</g></g><g transform="translate(350,252) scale(0.14,0.14)"><g transform="" style="fill: rgb(26, 97, 21);">
<rect width="100" height="100"/>
</g></g><g transform="translate(364,252) scale(0.14,0.14)"><g transform="" style="fill: rgb(26, 97, 21);">
<rect width="100" height="100"/>
</g></g><g transform="translate(28,266) scale(0.14,0.14)"><g transform="" style="fill: rgb(26, 97, 21);">
<rect width="100" height="100"/>
</g></g><g transform="translate(56,266) scale(0.14,0.14)"><g transform="" style="fill: rgb(26, 97, 21);">
<rect width="100" height="100"/>
</g></g><g transform="translate(98,266) scale(0.14,0.14)"><g transform="" style="fill: rgb(26, 97, 21);">
<rect width="100" height="100"/>
</g></g><g transform="translate(112,266) scale(0.14,0.14)"><g transform="" style="fill: rgb(26, 97, 21);">
<rect width="100" height="100"/>
</g></g><g transform="translate(154,266) scale(0.14,0.14)"><g transform="" style="fill: rgb(26, 97, 21);">
<rect width="100" height="100"/>
</g></g><g transform="translate(182,266) scale(0.14,0.14)"><g transform="" style="fill: rgb(26, 97, 21);">
<rect width="100" height="100"/>
</g></g><g transform="translate(224,266) scale(0.14,0.14)"><g transform="" style="fill: rgb(26, 97, 21);">
<rect width="100" height="100"/>
</g></g><g transform="translate(266,266) scale(0.14,0.14)"><g transform="" style="fill: rgb(26, 97, 21);">
<rect width="100" height="100"/>
</g></g><g transform="translate(294,266) scale(0.14,0.14)"><g transform="" style="fill: rgb(26, 97, 21);">
<rect width="100" height="100"/>
</g></g><g transform="translate(308,266) scale(0.14,0.14)"><g transform="" style="fill: rgb(26, 97, 21);">
<rect width="100" height="100"/>
</g></g><g transform="translate(350,266) scale(0.14,0.14)"><g transform="" style="fill: rgb(26, 97, 21);">
<rect width="100" height="100"/>
</g></g><g transform="translate(364,266) scale(0.14,0.14)"><g transform="" style="fill: rgb(26, 97, 21);">
<rect width="100" height="100"/>
</g></g><g transform="translate(392,266) scale(0.14,0.14)"><g transform="" style="fill: rgb(26, 97, 21);">
<rect width="100" height="100"/>
</g></g><g transform="translate(14,280) scale(0.14,0.14)"><g transform="" style="fill: rgb(26, 97, 21);">
<rect width="100" height="100"/>
</g></g><g transform="translate(42,280) scale(0.14,0.14)"><g transform="" style="fill: rgb(26, 97, 21);">
<rect width="100" height="100"/>
</g></g><g transform="translate(70,280) scale(0.14,0.14)"><g transform="" style="fill: rgb(26, 97, 21);">
<rect width="100" height="100"/>
</g></g><g transform="translate(84,280) scale(0.14,0.14)"><g transform="" style="fill: rgb(26, 97, 21);">
<rect width="100" height="100"/>
</g></g><g transform="translate(98,280) scale(0.14,0.14)"><g transform="" style="fill: rgb(26, 97, 21);">
<rect width="100" height="100"/>
</g></g><g transform="translate(112,280) scale(0.14,0.14)"><g transform="" style="fill: rgb(26, 97, 21);">
<rect width="100" height="100"/>
</g></g><g transform="translate(168,280) scale(0.14,0.14)"><g transform="" style="fill: rgb(26, 97, 21);">
<rect width="100" height="100"/>
</g></g><g transform="translate(182,280) scale(0.14,0.14)"><g transform="" style="fill: rgb(26, 97, 21);">
<rect width="100" height="100"/>
</g></g><g transform="translate(210,280) scale(0.14,0.14)"><g transform="" style="fill: rgb(26, 97, 21);">
<rect width="100" height="100"/>
</g></g><g transform="translate(224,280) scale(0.14,0.14)"><g transform="" style="fill: rgb(26, 97, 21);">
<rect width="100" height="100"/>
</g></g><g transform="translate(280,280) scale(0.14,0.14)"><g transform="" style="fill: rgb(26, 97, 21);">
<rect width="100" height="100"/>
</g></g><g transform="translate(294,280) scale(0.14,0.14)"><g transform="" style="fill: rgb(26, 97, 21);">
<rect width="100" height="100"/>
</g></g><g transform="translate(308,280) scale(0.14,0.14)"><g transform="" style="fill: rgb(26, 97, 21);">
<rect width="100" height="100"/>
</g></g><g transform="translate(322,280) scale(0.14,0.14)"><g transform="" style="fill: rgb(26, 97, 21);">
<rect width="100" height="100"/>
</g></g><g transform="translate(336,280) scale(0.14,0.14)"><g transform="" style="fill: rgb(26, 97, 21);">
<rect width="100" height="100"/>
</g></g><g transform="translate(350,280) scale(0.14,0.14)"><g transform="" style="fill: rgb(26, 97, 21);">
<rect width="100" height="100"/>
</g></g><g transform="translate(364,280) scale(0.14,0.14)"><g transform="" style="fill: rgb(26, 97, 21);">
<rect width="100" height="100"/>
</g></g><g transform="translate(378,280) scale(0.14,0.14)"><g transform="" style="fill: rgb(26, 97, 21);">
<rect width="100" height="100"/>
</g></g><g transform="translate(392,280) scale(0.14,0.14)"><g transform="" style="fill: rgb(26, 97, 21);">
<rect width="100" height="100"/>
</g></g><g transform="translate(112,294) scale(0.14,0.14)"><g transform="" style="fill: rgb(26, 97, 21);">
<rect width="100" height="100"/>
</g></g><g transform="translate(126,294) scale(0.14,0.14)"><g transform="" style="fill: rgb(26, 97, 21);">
<rect width="100" height="100"/>
</g></g><g transform="translate(140,294) scale(0.14,0.14)"><g transform="" style="fill: rgb(26, 97, 21);">
<rect width="100" height="100"/>
</g></g><g transform="translate(154,294) scale(0.14,0.14)"><g transform="" style="fill: rgb(26, 97, 21);">
<rect width="100" height="100"/>
</g></g><g transform="translate(168,294) scale(0.14,0.14)"><g transform="" style="fill: rgb(26, 97, 21);">
<rect width="100" height="100"/>
</g></g><g transform="translate(182,294) scale(0.14,0.14)"><g transform="" style="fill: rgb(26, 97, 21);">
<rect width="100" height="100"/>
</g></g><g transform="translate(196,294) scale(0.14,0.14)"><g transform="" style="fill: rgb(26, 97, 21);">
<rect width="100" height="100"/>
</g></g><g transform="translate(210,294) scale(0.14,0.14)"><g transform="" style="fill: rgb(26, 97, 21);">
<rect width="100" height="100"/>
</g></g><g transform="translate(224,294) scale(0.14,0.14)"><g transform="" style="fill: rgb(26, 97, 21);">
<rect width="100" height="100"/>
</g></g><g transform="translate(252,294) scale(0.14,0.14)"><g transform="" style="fill: rgb(26, 97, 21);">
<rect width="100" height="100"/>
</g></g><g transform="translate(266,294) scale(0.14,0.14)"><g transform="" style="fill: rgb(26, 97, 21);">
<rect width="100" height="100"/>
</g></g><g transform="translate(280,294) scale(0.14,0.14)"><g transform="" style="fill: rgb(26, 97, 21);">
<rect width="100" height="100"/>
</g></g><g transform="translate(336,294) scale(0.14,0.14)"><g transform="" style="fill: rgb(26, 97, 21);">
<rect width="100" height="100"/>
</g></g><g transform="translate(350,294) scale(0.14,0.14)"><g transform="" style="fill: rgb(26, 97, 21);">
<rect width="100" height="100"/>
</g></g><g transform="translate(378,294) scale(0.14,0.14)"><g transform="" style="fill: rgb(26, 97, 21);">
<rect width="100" height="100"/>
</g></g><g transform="translate(392,294) scale(0.14,0.14)"><g transform="" style="fill: rgb(26, 97, 21);">
<rect width="100" height="100"/>
</g></g><g transform="translate(112,308) scale(0.14,0.14)"><g transform="" style="fill: rgb(26, 97, 21);">
<rect width="100" height="100"/>
</g></g><g transform="translate(126,308) scale(0.14,0.14)"><g transform="" style="fill: rgb(26, 97, 21);">
<rect width="100" height="100"/>
</g></g><g transform="translate(182,308) scale(0.14,0.14)"><g transform="" style="fill: rgb(26, 97, 21);">
<rect width="100" height="100"/>
</g></g><g transform="translate(196,308) scale(0.14,0.14)"><g transform="" style="fill: rgb(26, 97, 21);">
<rect width="100" height="100"/>
</g></g><g transform="translate(224,308) scale(0.14,0.14)"><g transform="" style="fill: rgb(26, 97, 21);">
<rect width="100" height="100"/>
</g></g><g transform="translate(266,308) scale(0.14,0.14)"><g transform="" style="fill: rgb(26, 97, 21);">
<rect width="100" height="100"/>
</g></g><g transform="translate(280,308) scale(0.14,0.14)"><g transform="" style="fill: rgb(26, 97, 21);">
<rect width="100" height="100"/>
</g></g><g transform="translate(308,308) scale(0.14,0.14)"><g transform="" style="fill: rgb(26, 97, 21);">
<rect width="100" height="100"/>
</g></g><g transform="translate(336,308) scale(0.14,0.14)"><g transform="" style="fill: rgb(26, 97, 21);">
<rect width="100" height="100"/>
</g></g><g transform="translate(364,308) scale(0.14,0.14)"><g transform="" style="fill: rgb(26, 97, 21);">
<rect width="100" height="100"/>
</g></g><g transform="translate(140,322) scale(0.14,0.14)"><g transform="" style="fill: rgb(26, 97, 21);">
<rect width="100" height="100"/>
</g></g><g transform="translate(154,322) scale(0.14,0.14)"><g transform="" style="fill: rgb(26, 97, 21);">
<rect width="100" height="100"/>
</g></g><g transform="translate(182,322) scale(0.14,0.14)"><g transform="" style="fill: rgb(26, 97, 21);">
<rect width="100" height="100"/>
</g></g><g transform="translate(196,322) scale(0.14,0.14)"><g transform="" style="fill: rgb(26, 97, 21);">
<rect width="100" height="100"/>
</g></g><g transform="translate(210,322) scale(0.14,0.14)"><g transform="" style="fill: rgb(26, 97, 21);">
<rect width="100" height="100"/>
</g></g><g transform="translate(224,322) scale(0.14,0.14)"><g transform="" style="fill: rgb(26, 97, 21);">
<rect width="100" height="100"/>
</g></g><g transform="translate(238,322) scale(0.14,0.14)"><g transform="" style="fill: rgb(26, 97, 21);">
<rect width="100" height="100"/>
</g></g><g transform="translate(280,322) scale(0.14,0.14)"><g transform="" style="fill: rgb(26, 97, 21);">
<rect width="100" height="100"/>
</g></g><g transform="translate(336,322) scale(0.14,0.14)"><g transform="" style="fill: rgb(26, 97, 21);">
<rect width="100" height="100"/>
</g></g><g transform="translate(378,322) scale(0.14,0.14)"><g transform="" style="fill: rgb(26, 97, 21);">
<rect width="100" height="100"/>
</g></g><g transform="translate(392,322) scale(0.14,0.14)"><g transform="" style="fill: rgb(26, 97, 21);">
<rect width="100" height="100"/>
</g></g><g transform="translate(140,336) scale(0.14,0.14)"><g transform="" style="fill: rgb(26, 97, 21);">
<rect width="100" height="100"/>
</g></g><g transform="translate(154,336) scale(0.14,0.14)"><g transform="" style="fill: rgb(26, 97, 21);">
<rect width="100" height="100"/>
</g></g><g transform="translate(210,336) scale(0.14,0.14)"><g transform="" style="fill: rgb(26, 97, 21);">
<rect width="100" height="100"/>
</g></g><g transform="translate(252,336) scale(0.14,0.14)"><g transform="" style="fill: rgb(26, 97, 21);">
<rect width="100" height="100"/>
</g></g><g transform="translate(280,336) scale(0.14,0.14)"><g transform="" style="fill: rgb(26, 97, 21);">
<rect width="100" height="100"/>
</g></g><g transform="translate(294,336) scale(0.14,0.14)"><g transform="" style="fill: rgb(26, 97, 21);">
<rect width="100" height="100"/>
</g></g><g transform="translate(308,336) scale(0.14,0.14)"><g transform="" style="fill: rgb(26, 97, 21);">
<rect width="100" height="100"/>
</g></g><g transform="translate(322,336) scale(0.14,0.14)"><g transform="" style="fill: rgb(26, 97, 21);">
<rect width="100" height="100"/>
</g></g><g transform="translate(336,336) scale(0.14,0.14)"><g transform="" style="fill: rgb(26, 97, 21);">
<rect width="100" height="100"/>
</g></g><g transform="translate(350,336) scale(0.14,0.14)"><g transform="" style="fill: rgb(26, 97, 21);">
<rect width="100" height="100"/>
</g></g><g transform="translate(364,336) scale(0.14,0.14)"><g transform="" style="fill: rgb(26, 97, 21);">
<rect width="100" height="100"/>
</g></g><g transform="translate(112,350) scale(0.14,0.14)"><g transform="" style="fill: rgb(26, 97, 21);">
<rect width="100" height="100"/>
</g></g><g transform="translate(126,350) scale(0.14,0.14)"><g transform="" style="fill: rgb(26, 97, 21);">
<rect width="100" height="100"/>
</g></g><g transform="translate(140,350) scale(0.14,0.14)"><g transform="" style="fill: rgb(26, 97, 21);">
<rect width="100" height="100"/>
</g></g><g transform="translate(168,350) scale(0.14,0.14)"><g transform="" style="fill: rgb(26, 97, 21);">
<rect width="100" height="100"/>
</g></g><g transform="translate(182,350) scale(0.14,0.14)"><g transform="" style="fill: rgb(26, 97, 21);">
<rect width="100" height="100"/>
</g></g><g transform="translate(196,350) scale(0.14,0.14)"><g transform="" style="fill: rgb(26, 97, 21);">
<rect width="100" height="100"/>
</g></g><g transform="translate(210,350) scale(0.14,0.14)"><g transform="" style="fill: rgb(26, 97, 21);">
<rect width="100" height="100"/>
</g></g><g transform="translate(224,350) scale(0.14,0.14)"><g transform="" style="fill: rgb(26, 97, 21);">
<rect width="100" height="100"/>
</g></g><g transform="translate(252,350) scale(0.14,0.14)"><g transform="" style="fill: rgb(26, 97, 21);">
<rect width="100" height="100"/>
</g></g><g transform="translate(266,350) scale(0.14,0.14)"><g transform="" style="fill: rgb(26, 97, 21);">
<rect width="100" height="100"/>
</g></g><g transform="translate(336,350) scale(0.14,0.14)"><g transform="" style="fill: rgb(26, 97, 21);">
<rect width="100" height="100"/>
</g></g><g transform="translate(350,350) scale(0.14,0.14)"><g transform="" style="fill: rgb(26, 97, 21);">
<rect width="100" height="100"/>
</g></g><g transform="translate(378,350) scale(0.14,0.14)"><g transform="" style="fill: rgb(26, 97, 21);">
<rect width="100" height="100"/>
</g></g><g transform="translate(112,364) scale(0.14,0.14)"><g transform="" style="fill: rgb(26, 97, 21);">
<rect width="100" height="100"/>
</g></g><g transform="translate(168,364) scale(0.14,0.14)"><g transform="" style="fill: rgb(26, 97, 21);">
<rect width="100" height="100"/>
</g></g><g transform="translate(182,364) scale(0.14,0.14)"><g transform="" style="fill: rgb(26, 97, 21);">
<rect width="100" height="100"/>
</g></g><g transform="translate(196,364) scale(0.14,0.14)"><g transform="" style="fill: rgb(26, 97, 21);">
<rect width="100" height="100"/>
</g></g><g transform="translate(224,364) scale(0.14,0.14)"><g transform="" style="fill: rgb(26, 97, 21);">
<rect width="100" height="100"/>
</g></g><g transform="translate(252,364) scale(0.14,0.14)"><g transform="" style="fill: rgb(26, 97, 21);">
<rect width="100" height="100"/>
</g></g><g transform="translate(280,364) scale(0.14,0.14)"><g transform="" style="fill: rgb(26, 97, 21);">
<rect width="100" height="100"/>
</g></g><g transform="translate(322,364) scale(0.14,0.14)"><g transform="" style="fill: rgb(26, 97, 21);">
<rect width="100" height="100"/>
</g></g><g transform="translate(350,364) scale(0.14,0.14)"><g transform="" style="fill: rgb(26, 97, 21);">
<rect width="100" height="100"/>
</g></g><g transform="translate(364,364) scale(0.14,0.14)"><g transform="" style="fill: rgb(26, 97, 21);">
<rect width="100" height="100"/>
</g></g><g transform="translate(392,364) scale(0.14,0.14)"><g transform="" style="fill: rgb(26, 97, 21);">
<rect width="100" height="100"/>
</g></g><g transform="translate(126,378) scale(0.14,0.14)"><g transform="" style="fill: rgb(26, 97, 21);">
<rect width="100" height="100"/>
</g></g><g transform="translate(154,378) scale(0.14,0.14)"><g transform="" style="fill: rgb(26, 97, 21);">
<rect width="100" height="100"/>
</g></g><g transform="translate(196,378) scale(0.14,0.14)"><g transform="" style="fill: rgb(26, 97, 21);">
<rect width="100" height="100"/>
</g></g><g transform="translate(210,378) scale(0.14,0.14)"><g transform="" style="fill: rgb(26, 97, 21);">
<rect width="100" height="100"/>
</g></g><g transform="translate(252,378) scale(0.14,0.14)"><g transform="" style="fill: rgb(26, 97, 21);">
<rect width="100" height="100"/>
</g></g><g transform="translate(280,378) scale(0.14,0.14)"><g transform="" style="fill: rgb(26, 97, 21);">
<rect width="100" height="100"/>
</g></g><g transform="translate(294,378) scale(0.14,0.14)"><g transform="" style="fill: rgb(26, 97, 21);">
<rect width="100" height="100"/>
</g></g><g transform="translate(336,378) scale(0.14,0.14)"><g transform="" style="fill: rgb(26, 97, 21);">
<rect width="100" height="100"/>
</g></g><g transform="translate(350,378) scale(0.14,0.14)"><g transform="" style="fill: rgb(26, 97, 21);">
<rect width="100" height="100"/>
</g></g><g transform="translate(378,378) scale(0.14,0.14)"><g transform="" style="fill: rgb(26, 97, 21);">
<rect width="100" height="100"/>
</g></g><g transform="translate(126,392) scale(0.14,0.14)"><g transform="" style="fill: rgb(26, 97, 21);">
<rect width="100" height="100"/>
</g></g><g transform="translate(140,392) scale(0.14,0.14)"><g transform="" style="fill: rgb(26, 97, 21);">
<rect width="100" height="100"/>
</g></g><g transform="translate(168,392) scale(0.14,0.14)"><g transform="" style="fill: rgb(26, 97, 21);">
<rect width="100" height="100"/>
</g></g><g transform="translate(210,392) scale(0.14,0.14)"><g transform="" style="fill: rgb(26, 97, 21);">
<rect width="100" height="100"/>
</g></g><g transform="translate(238,392) scale(0.14,0.14)"><g transform="" style="fill: rgb(26, 97, 21);">
<rect width="100" height="100"/>
</g></g><g transform="translate(266,392) scale(0.14,0.14)"><g transform="" style="fill: rgb(26, 97, 21);">
<rect width="100" height="100"/>
</g></g><g transform="translate(280,392) scale(0.14,0.14)"><g transform="" style="fill: rgb(26, 97, 21);">
<rect width="100" height="100"/>
</g></g><g transform="translate(308,392) scale(0.14,0.14)"><g transform="" style="fill: rgb(26, 97, 21);">
<rect width="100" height="100"/>
</g></g><g transform="translate(322,392) scale(0.14,0.14)"><g transform="" style="fill: rgb(26, 97, 21);">
<rect width="100" height="100"/>
</g></g><g transform="translate(350,392) scale(0.14,0.14)"><g transform="" style="fill: rgb(26, 97, 21);">
<rect width="100" height="100"/>
</g></g><g transform="translate(378,392) scale(0.14,0.14)"><g transform="" style="fill: rgb(26, 97, 21);">
<rect width="100" height="100"/>
</g></g><g transform="translate(0,0) scale(0.98, 0.98)"><g transform="" style="fill: rgb(26, 97, 21);">
<g>
	<path style="fill:none;" d="M65.859,15.008H34.141c-4.082,0-7.869,1.258-10.979,3.398c-2.419,1.665-4.428,3.864-5.848,6.421
		C15.838,27.484,15,30.526,15,33.758v32.471c0,10.344,8.586,18.76,19.145,18.76L50,84.992l15.855-0.004
		C76.414,84.988,85,76.572,85,66.229V33.758C85,23.419,76.414,15.008,65.859,15.008z"/>
	<path d="M65.859,0.008H34.141h0C18.683,0.008,5.587,10.221,1.4,24.18c-0.433,1.444-0.771,2.928-1.006,4.445
		C0.135,30.299,0,32.013,0,33.758v32.471c0,18.619,15.32,33.76,34.141,33.76L50,99.992l15.859-0.004
		c18.82,0,34.141-15.141,34.141-33.76V33.758C100,15.148,84.68,0.008,65.859,0.008z M85,66.229c0,10.344-8.586,18.76-19.145,18.76
		L50,84.992l-15.855-0.004C23.586,84.988,15,76.572,15,66.229V33.758c0-3.231,0.838-6.273,2.313-8.931
		c1.42-2.557,3.429-4.756,5.848-6.421c3.11-2.141,6.897-3.398,10.979-3.398h31.719C76.414,15.008,85,23.419,85,33.758V66.229z"/>
</g>
</g></g><g transform="translate(308,0) scale(0.98, 0.98)"><g transform="" style="fill: rgb(26, 97, 21);">
<g>
	<path style="fill:none;" d="M65.859,15.008H34.141c-4.082,0-7.869,1.258-10.979,3.398c-2.419,1.665-4.428,3.864-5.848,6.421
		C15.838,27.484,15,30.526,15,33.758v32.471c0,10.344,8.586,18.76,19.145,18.76L50,84.992l15.855-0.004
		C76.414,84.988,85,76.572,85,66.229V33.758C85,23.419,76.414,15.008,65.859,15.008z"/>
	<path d="M65.859,0.008H34.141h0C18.683,0.008,5.587,10.221,1.4,24.18c-0.433,1.444-0.771,2.928-1.006,4.445
		C0.135,30.299,0,32.013,0,33.758v32.471c0,18.619,15.32,33.76,34.141,33.76L50,99.992l15.859-0.004
		c18.82,0,34.141-15.141,34.141-33.76V33.758C100,15.148,84.68,0.008,65.859,0.008z M85,66.229c0,10.344-8.586,18.76-19.145,18.76
		L50,84.992l-15.855-0.004C23.586,84.988,15,76.572,15,66.229V33.758c0-3.231,0.838-6.273,2.313-8.931
		c1.42-2.557,3.429-4.756,5.848-6.421c3.11-2.141,6.897-3.398,10.979-3.398h31.719C76.414,15.008,85,23.419,85,33.758V66.229z"/>
</g>
</g></g><g transform="translate(0,308) scale(0.98, 0.98)"><g transform="" style="fill: rgb(26, 97, 21);">
<g>
	<path style="fill:none;" d="M65.859,15.008H34.141c-4.082,0-7.869,1.258-10.979,3.398c-2.419,1.665-4.428,3.864-5.848,6.421
		C15.838,27.484,15,30.526,15,33.758v32.471c0,10.344,8.586,18.76,19.145,18.76L50,84.992l15.855-0.004
		C76.414,84.988,85,76.572,85,66.229V33.758C85,23.419,76.414,15.008,65.859,15.008z"/>
	<path d="M65.859,0.008H34.141h0C18.683,0.008,5.587,10.221,1.4,24.18c-0.433,1.444-0.771,2.928-1.006,4.445
		C0.135,30.299,0,32.013,0,33.758v32.471c0,18.619,15.32,33.76,34.141,33.76L50,99.992l15.859-0.004
		c18.82,0,34.141-15.141,34.141-33.76V33.758C100,15.148,84.68,0.008,65.859,0.008z M85,66.229c0,10.344-8.586,18.76-19.145,18.76
		L50,84.992l-15.855-0.004C23.586,84.988,15,76.572,15,66.229V33.758c0-3.231,0.838-6.273,2.313-8.931
		c1.42-2.557,3.429-4.756,5.848-6.421c3.11-2.141,6.897-3.398,10.979-3.398h31.719C76.414,15.008,85,23.419,85,33.758V66.229z"/>
</g>
</g></g><g transform="translate(28,28) scale(0.42, 0.42)"><g transform="" style="fill: rgb(26, 97, 21);">
<rect width="100" height="100"/>
</g></g><g transform="translate(336,28) scale(0.42, 0.42)"><g transform="" style="fill: rgb(26, 97, 21);">
<rect width="100" height="100"/>
</g></g><g transform="translate(28,336) scale(0.42, 0.42)"><g transform="" style="fill: rgb(26, 97, 21);">
<rect width="100" height="100"/>
</g></g><g transform="translate(141.26,140) scale(2.52,2.52)" width="123.48" height="126"><svg
   width="49"
   height="50"
   viewBox="10 0 50 49"
   version="1.1"
   id="svg2361"

   xmlns="http://www.w3.org/2000/svg"
   xmlnsSvg="http://www.w3.org/2000/svg">
 
  <defs
     id="defs2358" />
  <g
     id="layer1">
    <g
       id="layer101"
       fill="#474f55"
       stroke="none"
       transform="matrix(0.09196477,0,0,0.09089203,3.0154344,-2.8456907)">
      <path
         d="M 242,556 C 139,522 77,433 76,320 75,54 429,-23 539,220 c 70,153 -35,332 -203,346 -28,2 -70,-2 -94,-10 z M 348,364 c 41,-29 19,-94 -33,-94 -21,0 -55,32 -55,51 0,13 42,59 54,59 6,0 22,-7 34,-16 z"
         id="path2" />
    </g>
    <g
       id="layer102"
       fill="#8b7849"
       stroke="none"
       transform="matrix(0.09196477,0,0,0.09089203,3.0154344,-2.8456907)">
      <path
         d="m 219,507 c -29,-16 -54,-40 -74,-72 -26,-42 -30,-58 -30,-121 0,-64 3,-77 30,-115 113,-160 349,-99 381,98 13,82 -46,187 -123,220 -51,21 -133,17 -184,-10 z M 374,388 c 40,-35 43,-78 11,-116 -22,-26 -34,-32 -66,-32 -80,0 -115,77 -63,139 32,39 80,42 118,9 z"
         id="path5" />
    </g>
    <g
       id="layer103"
       fill="#45b980"
       stroke="none"
       style="fill:#226e13;fill-opacity:1"
       transform="matrix(0.09196477,0,0,0.09089203,3.0154344,-2.8456907)">
      <path
         d="M 219,507 C 136,463 90,346 120,255 157,143 290,81 398,125 c 168,71 168,319 0,390 -55,22 -127,19 -179,-8 z M 373,390 c 50,-39 42,-117 -15,-146 -60,-31 -128,13 -128,83 0,71 85,109 143,63 z"
         id="path8"
         style="fill:#226e13;fill-opacity:1" />
    </g>
    <g
       id="layer104"
       fill="#b2b24f"
       stroke="none"
       style="fill:#e5b54f;fill-opacity:1"
       transform="matrix(0.09196477,0,0,0.09089203,3.0154344,-2.8456907)">
      <path
         d="m 418,489 c 37,-37 72,-98 72,-127 0,-24 -41,-62 -67,-62 -13,0 -24,-8 -28,-20 -4,-11 -20,-27 -37,-36 -40,-21 -97,-6 -127,33 -21,26 -29,73 -12,73 5,0 16,11 25,25 12,18 -2,11 -46,-25 -34,-27 -68,-50 -75,-50 -18,0 -16,-17 6,-65 49,-105 183,-157 269,-105 42,26 89,100 97,153 3,23 11,52 17,64 20,40 -33,128 -96,160 l -31,15 z"
         id="path11"
         style="fill:#e5b54f;fill-opacity:1" />
      <path
         d="m 382,459 c 2,-7 10,-15 17,-17 8,-3 12,1 9,9 -2,7 -10,15 -17,17 -8,3 -12,-1 -9,-9 z"
         id="path13"
         style="fill:#e5b54f;fill-opacity:1" />
      <path
         d="m 210,430 c 0,-5 11,-10 25,-10 14,0 25,5 25,10 0,6 -11,10 -25,10 -14,0 -25,-4 -25,-10 z"
         id="path15"
         style="fill:#e5b54f;fill-opacity:1" />
      <path
         d="m 436,391 c -7,-11 22,-23 36,-15 6,4 5,10 -3,15 -18,11 -26,11 -33,0 z"
         id="path17"
         style="fill:#e5b54f;fill-opacity:1" />
    </g>
    <g
       id="layer105"
       fill="#f8bf37"
       stroke="none"
       style="fill:#f88b12;fill-opacity:1"
       transform="matrix(0.09196477,0,0,0.09089203,3.0154344,-2.8456907)">
      <path
         d="m 448,463 c 16,-21 35,-55 42,-75 13,-44 36,-53 25,-10 -8,35 -48,93 -76,110 -17,11 -15,6 9,-25 z"
         id="path20"
         style="fill:#f88b12;fill-opacity:1" />
      <path
         d="m 382,459 c 2,-7 10,-15 17,-17 8,-3 12,1 9,9 -2,7 -10,15 -17,17 -8,3 -12,-1 -9,-9 z"
         id="path22"
         style="fill:#f88b12;fill-opacity:1" />
      <path
         d="m 210,430 c 0,-5 11,-10 25,-10 14,0 25,5 25,10 0,6 -11,10 -25,10 -14,0 -25,-4 -25,-10 z"
         id="path24"
         style="fill:#f88b12;fill-opacity:1" />
      <path
         d="m 436,391 c -7,-11 22,-23 36,-15 6,4 5,10 -3,15 -18,11 -26,11 -33,0 z"
         id="path26"
         style="fill:#f88b12;fill-opacity:1" />
      <path
         d="m 174,327 c -18,-15 -39,-27 -47,-27 -13,0 -13,-7 -4,-42 20,-79 112,-148 200,-148 77,0 167,100 167,185 v 36 l -26,-20 c -15,-12 -32,-21 -40,-21 -7,0 -27,-14 -44,-31 -27,-28 -36,-31 -72,-26 -59,8 -92,36 -98,82 l -5,38 z"
         id="path28"
         style="fill:#f88b12;fill-opacity:1" />
    </g>
    <g
       id="layer106"
       fill="#a3ddc1"
       stroke="none"
       transform="matrix(0.09196477,0,0,0.09089203,3.0154344,-2.8456907)">
      <path
         d="m 382,459 c 2,-7 10,-15 17,-17 8,-3 12,1 9,9 -2,7 -10,15 -17,17 -8,3 -12,-1 -9,-9 z"
         id="path31" />
      <path
         d="m 210,430 c 0,-5 11,-10 25,-10 14,0 25,5 25,10 0,6 -11,10 -25,10 -14,0 -25,-4 -25,-10 z"
         id="path33" />
      <path
         d="m 436,391 c -7,-11 22,-23 36,-15 6,4 5,10 -3,15 -18,11 -26,11 -33,0 z"
         id="path35" />
      <path
         d="m 455,256 c -11,-8 -14,-15 -8,-19 6,-4 16,0 23,8 17,21 8,28 -15,11 z"
         id="path37" />
      <path
         d="m 160,250 c 0,-5 9,-10 20,-10 11,0 20,5 20,10 0,6 -9,10 -20,10 -11,0 -20,-4 -20,-10 z"
         id="path39" />
      <path
         d="m 332,179 c 2,-7 10,-15 17,-17 8,-3 12,1 9,9 -2,7 -10,15 -17,17 -8,3 -12,-1 -9,-9 z"
         id="path41" />
    </g>
    <g
       id="layer107"
       fill="#fde7b1"
       stroke="none"
       transform="matrix(0.09196477,0,0,0.09089203,3.0154344,-2.8456907)">
      <path
         d="m 220,430 c 0,-5 7,-10 15,-10 8,0 15,5 15,10 0,6 -7,10 -15,10 -8,0 -15,-4 -15,-10 z"
         id="path44" />
      <path
         d="m 455,256 c -11,-8 -14,-15 -8,-19 6,-4 16,0 23,8 17,21 8,28 -15,11 z"
         id="path46" />
      <path
         d="m 160,250 c 0,-5 9,-10 20,-10 11,0 20,5 20,10 0,6 -9,10 -20,10 -11,0 -20,-4 -20,-10 z"
         id="path48" />
      <path
         d="m 332,179 c 2,-7 10,-15 17,-17 8,-3 12,1 9,9 -2,7 -10,15 -17,17 -8,3 -12,-1 -9,-9 z"
         id="path50" />
    </g>
    <g
       id="layer108"
       fill="#f6f9f1"
       stroke="none"
       transform="matrix(0.09196477,0,0,0.09089203,3.0154344,-2.8456907)">
      <path
         d="m 220,430 c 0,-5 7,-10 15,-10 8,0 15,5 15,10 0,6 -7,10 -15,10 -8,0 -15,-4 -15,-10 z"
         id="path53" />
      <path
         d="m 165,250 c 3,-5 13,-10 21,-10 8,0 14,5 14,10 0,6 -9,10 -21,10 -11,0 -17,-4 -14,-10 z"
         id="path55" />
    </g>
  </g>
</svg>
</g></g></svg>