<svg xmlns="http://www.w3.org/2000/svg" width="24px" height="32px" viewBox="0 0 24 32" version="1.1" fill="#a36422">
  <g id="surface1">
    <path d="M 3.652344 0.835938 C 3.652344 1.253906 3.640625 1.601562 3.621094 1.613281 C 3.601562 1.621094 2.816406 1.601562 1.875 1.566406 C 0.933594 1.535156 0.148438 1.519531 0.136719 1.53125 C 0.125 1.546875 0.105469 1.84375 0.0898438 2.191406 C 0.0742188 2.714844 0.0820312 2.832031 0.128906 2.847656 C 0.160156 2.855469 0.96875 2.886719 1.921875 2.917969 L 3.652344 2.964844 L 3.652344 3.882812 C 3.652344 4.386719 3.640625 4.804688 3.621094 4.8125 C 3.601562 4.820312 2.808594 4.800781 1.855469 4.765625 C 0.902344 4.734375 0.117188 4.714844 0.109375 4.722656 C 0.0976562 4.730469 0.0859375 5.035156 0.078125 5.394531 L 0.0625 6.050781 L 1.410156 6.101562 C 2.152344 6.125 2.957031 6.148438 3.207031 6.148438 L 3.652344 6.152344 L 3.652344 17.464844 C 3.652344 29.328125 3.636719 30.5625 3.464844 31.5625 L 3.445312 31.671875 L 5.878906 31.664062 L 8.316406 31.652344 L 8.371094 31.40625 C 8.410156 31.210938 8.546875 29.824219 8.546875 29.609375 C 8.546875 29.578125 8.660156 29.683594 8.796875 29.828125 C 9.679688 30.800781 11.054688 31.535156 12.609375 31.867188 L 13.132812 31.980469 L 14.917969 31.980469 C 16.640625 31.980469 16.714844 31.976562 17.117188 31.886719 C 18.320312 31.605469 19.203125 31.214844 20.054688 30.59375 C 20.476562 30.285156 21.183594 29.582031 21.515625 29.148438 C 22.476562 27.875 23.164062 26.132812 23.527344 24.035156 C 23.921875 21.75 23.945312 18.511719 23.589844 16.125 C 23.175781 13.332031 22.253906 11.289062 20.789062 9.914062 C 19.351562 8.566406 17.476562 7.917969 14.988281 7.917969 C 13.269531 7.917969 11.9375 8.179688 10.742188 8.757812 C 10.074219 9.082031 9.605469 9.414062 9.015625 9.984375 L 8.671875 10.316406 L 8.671875 6.359375 L 9.039062 6.359375 C 9.238281 6.359375 9.921875 6.375 10.558594 6.398438 C 14.917969 6.550781 15.71875 6.566406 15.878906 6.503906 C 16.164062 6.382812 16.304688 6.195312 16.316406 5.894531 C 16.328125 5.648438 16.199219 5.417969 15.984375 5.308594 C 15.78125 5.203125 15.71875 5.199219 12.945312 5.089844 C 11.882812 5.050781 11.007812 5.027344 10.996094 5.042969 C 10.984375 5.054688 10.628906 5.054688 10.207031 5.042969 C 9.785156 5.027344 9.265625 5.011719 9.058594 5.007812 L 8.671875 5.003906 L 8.671875 3.148438 L 9.660156 3.175781 C 10.199219 3.1875 11.464844 3.230469 12.46875 3.261719 C 15.15625 3.347656 15.804688 3.355469 15.960938 3.289062 C 16.03125 3.257812 16.144531 3.160156 16.210938 3.066406 C 16.375 2.835938 16.378906 2.5 16.214844 2.289062 C 16.011719 2.027344 15.972656 2.019531 14.332031 1.949219 C 11.429688 1.824219 11.058594 1.816406 11.015625 1.84375 C 10.996094 1.859375 10.640625 1.859375 10.226562 1.84375 C 9.816406 1.824219 9.296875 1.8125 9.078125 1.808594 L 8.671875 1.804688 L 8.671875 0.0820312 L 3.652344 0.0820312 Z M 14.730469 12.066406 C 16.65625 12.300781 17.675781 13.339844 18.230469 15.628906 C 18.351562 16.125 18.476562 16.890625 18.554688 17.640625 C 18.644531 18.453125 18.625 21.75 18.535156 22.550781 C 18.199219 25.472656 17.476562 26.972656 16.085938 27.648438 C 15.320312 28.015625 14.453125 28.152344 13.402344 28.066406 C 10.515625 27.820312 9.210938 26.214844 8.769531 22.351562 C 8.679688 21.558594 8.664062 19.042969 8.746094 18.257812 C 9.085938 14.945312 9.914062 13.292969 11.621094 12.496094 C 12.449219 12.109375 13.703125 11.9375 14.730469 12.066406 Z M 14.730469 12.066406 "/>
  </g>
</svg>